<svg width="24" height="25" viewBox="0 0 24 25" fill="none" xmlns="http://www.w3.org/2000/svg">
    <ellipse cx="12.0001" cy="10.9309" rx="8.12903" ry="9.29032" fill="white"/>
    <path fill-rule="evenodd" clip-rule="evenodd" d="M12 24.0928C18.6274 24.0928 24 18.7202 24 12.0928C24 5.46536 18.6274 0.0927734 12 0.0927734C5.37258 0.0927734 0 5.46536 0 12.0928C0 18.7202 5.37258 24.0928 12 24.0928ZM14.6343 7.48225C16.2633 8.01918 17.4546 8.82406 17.2206 10.3214L17.2207 10.3213L17.2211 10.3216C17.0518 11.4177 16.4167 11.9483 15.5736 12.1343C16.7312 12.711 17.3202 13.5954 16.7591 15.1286C16.0627 17.0329 14.4084 17.1935 12.2081 16.7951L11.6743 18.8428L10.3839 18.5351L10.9109 16.5149C10.5764 16.4354 10.2347 16.351 9.88264 16.2596L9.35388 18.2893L8.06509 17.9817L8.59902 15.9301C8.47501 15.8998 8.35021 15.8687 8.22452 15.8373C8.04466 15.7925 7.86297 15.7471 7.6791 15.703L6 15.3025L6.6406 13.8892C6.6406 13.8892 7.59133 14.131 7.5784 14.1131C7.94371 14.1997 8.10578 13.9717 8.16964 13.8198L9.01341 10.5829C9.04738 10.5906 9.08046 10.5986 9.11229 10.6062C9.125 10.6092 9.13751 10.6122 9.14979 10.6151C9.0983 10.5953 9.05163 10.5827 9.01565 10.5739L9.61763 8.26326C9.63332 8.00093 9.53883 7.66995 9.01634 7.54517C9.03651 7.53224 8.07923 7.32226 8.07923 7.32226L8.42246 6.00355L10.2018 6.42873L10.2003 6.43511C10.4678 6.4988 10.7435 6.55924 11.0242 6.6204L11.5529 4.59277L12.8424 4.90043L12.3242 6.88834C12.6705 6.96396 13.0188 7.04024 13.358 7.1212L13.8725 5.14632L15.1628 5.45397L14.6343 7.48225ZM10.553 14.8361C11.6058 15.1022 13.9068 15.6838 14.2726 14.2771H14.2727C14.6474 12.839 12.4163 12.3598 11.3273 12.126C11.2055 12.0998 11.098 12.0767 11.01 12.0557L10.3015 14.7737C10.3737 14.7908 10.4583 14.8122 10.553 14.8361ZM11.5457 10.8645C12.4235 11.0887 14.3382 11.5777 14.6716 10.2992H14.6718C15.0123 8.99162 13.1515 8.5974 12.2427 8.40486C12.1404 8.3832 12.0502 8.36409 11.9766 8.34653L11.3342 10.8115C11.3949 10.826 11.466 10.8442 11.5457 10.8645Z" fill="#F7931A"/>
</svg>