<svg width="25" height="25" viewBox="0 0 25 25" fill="none" xmlns="http://www.w3.org/2000/svg">
    <circle cx="12.4536" cy="12.4536" r="12.4536" fill="#429DCF"/>
    <path d="M11.4443 16.4998L12.4088 13.4795L13.9118 13.0838L14.2259 12.084L12.7453 12.5005L14.3155 7.54317V7.46392C14.315 7.44692 14.3124 7.43008 14.308 7.41359C14.3042 7.3993 14.2989 7.38553 14.2923 7.37209C14.2781 7.34318 14.258 7.31716 14.233 7.29556C14.2168 7.28145 14.1988 7.26937 14.1794 7.25951C14.1689 7.25424 14.1579 7.24965 14.1467 7.24574C14.1146 7.23468 14.0805 7.22958 14.0464 7.2306H12.05C12.0118 7.22958 11.974 7.23451 11.938 7.24489C11.9028 7.25509 11.8694 7.27073 11.8393 7.29131C11.7783 7.33298 11.7339 7.39216 11.7134 7.45984L9.85162 13.3338L8.37119 13.7502L8.03467 14.7085L9.51518 14.2919L8.19171 18.4786H16.0877C16.1634 18.4815 16.2379 18.4604 16.2991 18.4188C16.3603 18.3771 16.4043 18.3174 16.4241 18.2496L16.8727 16.8122V16.7331C16.8719 16.7103 16.8676 16.6877 16.86 16.6661C16.8571 16.6578 16.8536 16.6495 16.8495 16.6413C16.8354 16.6124 16.8152 16.5864 16.7902 16.5646C16.7796 16.5554 16.7682 16.5471 16.7561 16.5398C16.7398 16.5297 16.7223 16.5214 16.7039 16.5149C16.6718 16.5039 16.6377 16.4986 16.6036 16.4998H11.4443Z" fill="white"/>
</svg>
