<svg width="24" height="24" viewBox="0 0 24 24" fill="none" xmlns="http://www.w3.org/2000/svg">
    <circle cx="12" cy="12" r="12" fill="#2775CA"/>
    <path d="M12.0002 21.6771C17.3631 21.6771 21.6776 17.3626 21.6776 11.9997C21.6776 6.63675 17.3631 2.32227 12.0002 2.32227C6.63724 2.32227 2.32275 6.63675 2.32275 11.9997C2.32275 17.3626 6.63724 21.6771 12.0002 21.6771Z" fill="#2775CA"/>
    <path d="M14.6299 13.5304C14.6299 12.125 13.7892 11.6431 12.1077 11.4424C10.9067 11.2817 10.6664 10.9605 10.6664 10.3983C10.6664 9.83603 11.0668 9.47473 11.8675 9.47473C12.5881 9.47473 12.9885 9.71566 13.1886 10.318C13.2287 10.4385 13.3488 10.5187 13.4689 10.5187H14.1094C14.2696 10.5187 14.3897 10.3983 14.3897 10.2377V10.1975C14.2295 9.31408 13.5089 8.63147 12.5881 8.55119V7.58747C12.5881 7.42682 12.468 7.30635 12.2679 7.26617H11.6673C11.5072 7.26617 11.3871 7.38663 11.347 7.58747V8.51101C10.146 8.67166 9.38535 9.47473 9.38535 10.4786C9.38535 11.8038 10.186 12.3257 11.8675 12.5266C12.9885 12.7273 13.3488 12.9682 13.3488 13.6107C13.3488 14.2533 12.7883 14.6949 12.0277 14.6949C10.9867 14.6949 10.6264 14.2532 10.5063 13.6508C10.4663 13.4903 10.3462 13.4099 10.2261 13.4099H9.54543C9.38536 13.4099 9.26525 13.5304 9.26525 13.691V13.7312C9.42533 14.735 10.0659 15.4578 11.3871 15.6587V16.6224C11.3871 16.7829 11.5072 16.9034 11.7073 16.9436H12.3078C12.468 16.9436 12.5881 16.8231 12.6282 16.6224V15.6587C13.8292 15.4578 14.6299 14.6146 14.6299 13.5304Z" fill="white"/>
    <path d="M9.94928 17.7231C6.81263 16.5995 5.20406 13.1082 6.37032 10.0181C6.97352 8.3326 8.30056 7.04847 9.94928 6.44651C10.1102 6.36628 10.1906 6.24589 10.1906 6.04518V5.48339C10.1906 5.32283 10.1102 5.20244 9.94928 5.16238C9.90904 5.16238 9.82864 5.16238 9.7884 5.20244C5.96815 6.40635 3.87701 10.4596 5.08342 14.2719C5.80726 16.5192 7.53647 18.2448 9.7884 18.9671C9.94929 19.0474 10.1102 18.9671 10.1503 18.8066C10.1906 18.7665 10.1906 18.7264 10.1906 18.6461V18.0842C10.1906 17.9639 10.0699 17.8034 9.94928 17.7231ZM14.2119 5.20244C14.0511 5.12222 13.8902 5.20244 13.85 5.363C13.8098 5.40316 13.8098 5.44323 13.8098 5.52355V6.08534C13.8098 6.24589 13.9304 6.40635 14.0511 6.48668C17.1877 7.61026 18.7963 11.1016 17.63 14.1917C17.0268 15.8771 15.6998 17.1613 14.0511 17.7632C13.8902 17.8435 13.8098 17.9639 13.8098 18.1646V18.7264C13.8098 18.8869 13.8902 19.0073 14.0511 19.0474C14.0913 19.0474 14.1717 19.0474 14.2119 19.0073C18.0322 17.8034 20.1233 13.7502 18.9169 9.93784C18.1931 7.65042 16.4236 5.92479 14.2119 5.20244Z" fill="white"/>
</svg>
