<svg width="24" height="24" viewBox="0 0 24 24" fill="none" xmlns="http://www.w3.org/2000/svg">
    <circle cx="12" cy="12" r="12" fill="#2DA47F"/>
    <path d="M13.1802 10.6074V9.16518H16.4346V6.96777H7.5727V9.16518H10.8275V10.6062C8.18229 10.7293 6.19336 11.2602 6.19336 11.8962C6.19336 12.5322 8.18325 13.063 10.8275 13.1869V17.8065H13.1809V13.1866C15.8214 13.063 17.8063 12.5325 17.8063 11.8972C17.8063 11.2618 15.8214 10.7313 13.1809 10.6078M13.1809 12.7953V12.7941C13.1145 12.7984 12.7734 12.8191 12.0138 12.8191C11.4065 12.8191 10.9792 12.8017 10.8286 12.7937V12.7957C8.49168 12.6908 6.74727 12.2784 6.74727 11.7849C6.74727 11.2914 8.49187 10.8796 10.8286 10.7745V12.3848C10.9817 12.3955 11.4195 12.4216 12.0237 12.4216C12.7495 12.4216 13.1143 12.391 13.1813 12.3848V10.7745C15.5137 10.8798 17.2541 11.2926 17.2541 11.7843C17.2541 12.276 15.5129 12.689 13.1813 12.7943" fill="white"/>
</svg>
